<svg width="356" height="16" viewBox="0 0 356 16" fill="none" xmlns="http://www.w3.org/2000/svg">
<path d="M3 3.05505C20.5062 3.05505 20.5062 13.0551 38.0123 13.0551C55.5185 13.0551 55.5185 3.05505 73.0246 3.05505C90.5308 3.05505 90.5308 13.0551 107.996 13.0551C125.503 13.0551 125.503 3.05505 142.967 3.05505C160.474 3.05505 160.474 13.0551 177.938 13.0551C195.445 13.0551 195.445 3.05505 212.95 3.05505C230.457 3.05505 230.457 13.0551 247.963 13.0551C265.469 13.0551 265.469 3.05505 282.975 3.05505C300.482 3.05505 300.482 13.0551 317.988 13.0551C335.493 13.0551 335.493 3.05505 353 3.05505" stroke="#C4BDDA" stroke-width="5" stroke-miterlimit="10" stroke-linecap="round"/>
</svg>
